<svg width="20" height="21" viewBox="0 0 20 21" fill="none" xmlns="http://www.w3.org/2000/svg">
<path d="M6 9.5L7.5 13.5H11.5L13 9.5L9.5 7L6 9.5Z" fill="black"/>
<path d="M17.0662 2.93801C16.1407 2.00507 15.0392 1.26502 13.8256 0.760703C12.612 0.256389 11.3104 -0.00216479 9.99625 1.3652e-05C8.68178 -0.00204294 7.37994 0.256558 6.16605 0.760858C4.95216 1.26516 3.85032 2.00514 2.92425 2.93801C-0.97475 6.83601 -0.97475 13.181 2.92425 17.08C3.85033 18.0131 4.95233 18.7533 6.16642 19.2576C7.38051 19.7619 8.68258 20.0204 9.99725 20.018C11.3114 20.0203 12.6129 19.7619 13.8265 19.2578C15.0401 18.7536 16.1416 18.0138 17.0673 17.081C20.9663 13.183 20.9662 6.83801 17.0662 2.93801ZM10.1762 2.00901H9.81725C9.87825 2.00801 9.93625 2.00001 9.99725 2.00001C10.0582 2.00001 10.1152 2.00801 10.1762 2.00901ZM16.2383 15.009H13.9952L12.7372 17.525C11.8597 17.8492 10.9318 18.0161 9.99625 18.018C9.05897 18.0163 8.12936 17.8491 7.25025 17.524L5.99525 15.019H3.76025C2.93569 13.9939 2.37806 12.7804 2.13725 11.487L3.99525 9.00901L2.77925 6.57601C3.16726 5.7506 3.69465 4.99825 4.33825 4.35201C5.23904 3.44807 6.34314 2.77292 7.55825 2.38301L9.99525 4.00901L12.4332 2.38401C13.648 2.7742 14.752 3.44893 15.6533 4.35201C16.2962 4.99748 16.8232 5.74878 17.2113 6.57301L15.9952 9.00901L17.8533 11.487C17.6135 12.7762 17.0587 13.9861 16.2383 15.009Z" fill="black"/>
</svg>
