<svg width="21" height="21" viewBox="0 0 21 21" fill="none" xmlns="http://www.w3.org/2000/svg">
<g clip-path="url(#clip0_322_4677)">
<path d="M10.4913 1.75C5.66125 1.75 1.75 5.67 1.75 10.5C1.75 15.33 5.66125 19.25 10.4913 19.25C15.33 19.25 19.25 15.33 19.25 10.5C19.25 5.67 15.33 1.75 10.4913 1.75ZM10.5 17.5C6.6325 17.5 3.5 14.3675 3.5 10.5C3.5 6.6325 6.6325 3.5 10.5 3.5C14.3675 3.5 17.5 6.6325 17.5 10.5C17.5 14.3675 14.3675 17.5 10.5 17.5Z" fill="black"/>
<path d="M10.9375 6.125H9.625V11.375L14.2188 14.1312L14.875 13.055L10.9375 10.7188V6.125Z" fill="black"/>
</g>
<defs>
<clipPath id="clip0_322_4677">
<rect width="21" height="21" fill="white"/>
</clipPath>
</defs>
</svg>
