<svg width="15" height="18" viewBox="0 0 15 18" fill="none" xmlns="http://www.w3.org/2000/svg">
<path d="M14.4231 6.9233H13.2692C13.2679 5.63843 12.8421 4.40661 12.0849 3.49807C11.3278 2.58952 10.3013 2.07846 9.23055 2.077V0.692336C10.6072 0.694168 11.9271 1.35123 12.9005 2.51937C13.874 3.6875 14.4215 5.27131 14.4231 6.9233ZM9.99962 12.7956L11.292 11.2448C11.465 11.0372 11.6849 10.895 11.9246 10.836C12.1643 10.7769 12.4131 10.8035 12.6403 10.9125L14.2142 11.6685C14.4462 11.7799 14.645 11.9721 14.7851 12.2204C14.9251 12.4687 15 12.7617 15 13.0615V16.4961C15.0004 16.7003 14.9661 16.9024 14.8991 17.0901C14.8322 17.2777 14.7341 17.447 14.6107 17.5876C14.4873 17.7282 14.3414 17.8371 14.1817 17.9076C14.0221 17.9781 13.8521 18.0088 13.6823 17.9978C2.64993 17.1739 0.421771 5.96097 0.00810154 1.66714C-0.0119336 1.45722 0.00529343 1.24459 0.0586498 1.04323C0.112006 0.84188 0.200283 0.656361 0.317673 0.498883C0.435064 0.341404 0.578908 0.215532 0.739744 0.129548C0.90058 0.0435641 1.07476 -0.000584625 1.25084 5.84564e-06H4.06229C4.31214 -3.78192e-06 4.55627 0.0898228 4.76318 0.257898C4.97009 0.425974 5.13028 0.664588 5.2231 0.942959L5.85255 2.83163C5.94338 3.10426 5.96556 3.40287 5.91634 3.69047C5.86711 3.97807 5.74864 4.24202 5.57561 4.44961L4.28326 6.00043C4.28326 6.00043 4.99982 12.0459 9.99962 12.7956Z" fill="black"/>
</svg>
