<svg width="18" height="19" viewBox="0 0 18 19" fill="none" xmlns="http://www.w3.org/2000/svg">
<path d="M1.56522 0C1.15591 0 0.736435 0.144 0.439826 0.440609C0.144 0.735652 0 1.15513 0 1.56522V10.1739C0 12.3574 1.29287 14.1785 3.13043 15.3344V18.7826H14.8696V15.3344C16.7071 14.1785 18 12.3566 18 10.1739V9.3913H7.82609V1.56522C7.82609 1.15591 7.68209 0.736435 7.38548 0.439826C7.09044 0.144 6.67096 0 6.26087 0H1.56522ZM1.56522 1.56522H6.26087V9.3913H1.56522V1.56522ZM3.13043 3.13043V5.47826H4.69565V3.13043H3.13043ZM1.80939 10.9565H16.1898C15.912 12.3081 15.12 13.5 13.7199 14.2583L13.3043 14.4783V17.2174H4.69565V14.4783L4.28009 14.2583C2.87922 13.5 2.088 12.3081 1.81017 10.9565H1.80939Z" fill="#979797"/>
</svg>
