<svg width="20" height="14" viewBox="0 0 20 14" fill="none" xmlns="http://www.w3.org/2000/svg">
<path d="M19.8409 3.84C14.3044 -1.28094 5.69341 -1.27906 0.159036 3.84C-0.0490891 4.0325 -0.0531516 4.35844 0.148098 4.55813L1.2181 5.61969C1.40997 5.81032 1.71872 5.81438 1.9181 5.63157C6.4781 1.45406 13.5212 1.45313 18.0822 5.63157C18.2815 5.81438 18.5903 5.81 18.7822 5.61969L19.8522 4.55813C20.0531 4.35844 20.049 4.0325 19.8409 3.84ZM9.99998 10C8.89529 10 7.99998 10.8953 7.99998 12C7.99998 13.1047 8.89529 14 9.99998 14C11.1047 14 12 13.1047 12 12C12 10.8953 11.1047 10 9.99998 10ZM16.3334 7.38782C12.7315 4.2025 7.26435 4.20594 3.66654 7.38782C3.45091 7.57844 3.44404 7.90938 3.64873 8.11125L4.72498 9.17344C4.91248 9.35844 5.21435 9.37094 5.41404 9.19844C8.03748 6.93063 11.9684 6.93563 14.5856 9.19844C14.7853 9.37094 15.0872 9.35876 15.2747 9.17344L16.3509 8.11125C16.5559 7.90938 16.5487 7.57813 16.3334 7.38782Z" fill="#A6A6A6"/>
</svg>
